<?xml version="1.0" encoding="utf-8" ?>
<svg xmlns="http://www.w3.org/2000/svg" xmlns:xlink="http://www.w3.org/1999/xlink" width="100" height="70">
	<path fill="#458395" fill-opacity="0.24313726" transform="matrix(0.0976562 0 0 0.0976562 0 1.90735e-06)" d="M61.0725 522.361C65.4871 521.229 70.6378 520.497 75.1826 520.397C73.2846 521.048 72.1133 521.473 70.7602 522.986L70.3703 524.853L71.0449 525.466C67.3769 525.108 64.3924 523.849 61.0725 522.361Z"/>
	<path fill="#FEFEFE" transform="matrix(0.0976562 0 0 0.0976562 0 1.90735e-06)" d="M0 664.59C4.92813 664.602 9.87621 664.341 14.7951 664.41C13.6442 665.427 12.4104 666.417 11.3857 667.559C9.94537 667.565 8.59356 667.496 7.1621 667.337C6.70759 666.627 6.4335 666.277 5.77881 665.71C3.71477 666.227 2.12039 666.529 0 666.224L0 664.59Z"/>
	<path fill="#BF9279" transform="matrix(0.0976562 0 0 0.0976562 0 1.90735e-06)" d="M136.739 664.819C136.902 664.842 137.064 664.881 137.228 664.889C138.117 664.936 138.749 664.71 139.599 664.492C144.786 663.163 157.544 662.249 162.424 664.093L163.157 664.988C162.942 665.955 163.167 665.908 162.456 666.378C158.594 668.929 143.22 668.41 138.364 667.269C137.683 667.109 137.965 667.118 137.287 667.316L136.739 664.819Z"/>
	<path fill="#BF9279" transform="matrix(0.0976562 0 0 0.0976562 0 1.90735e-06)" d="M21.4537 664.018C25.8724 662.549 30.0917 661.226 34.7658 660.943C45.3726 660.299 55.6266 662.539 66.1529 662.928C81.8572 663.508 96.3303 661.284 112.212 664.438C97.7353 664.993 83.2147 663.49 68.7293 663.511C57.2343 663.527 45.7574 664.553 34.2371 664.579C30.0717 664.588 25.538 664.889 21.4537 664.018Z"/>
	<defs>
		<linearGradient id="gradient_0" gradientUnits="userSpaceOnUse" x1="74.107384" y1="528.24896" x2="96.793335" y2="519.66687">
			<stop offset="0" stop-color="#458395" stop-opacity="0.24313726"/>
			<stop offset="1" stop-color="#83A0A3" stop-opacity="0.70588237"/>
		</linearGradient>
	</defs>
	<path fill="url(#gradient_0)" transform="matrix(0.0976562 0 0 0.0976562 0 1.90735e-06)" d="M75.1826 520.397C79.1219 520.754 83.4867 520.275 87.4494 520.183Q97.3077 519.939 107.168 520.075C105.922 520.548 104.688 520.981 103.414 521.371C104.493 521.519 105.565 521.653 106.651 521.748C103.444 522.114 100.275 522.268 97.0502 522.361L96.8038 522.864C97.4586 524.266 97.9655 524.911 99.468 525.428C103.099 526.678 107.321 525.474 110.724 526.981C97.5827 527.8 84.1038 526.847 71.0449 525.466L70.3703 524.853L70.7602 522.986C72.1133 521.473 73.2846 521.048 75.1826 520.397Z"/>
	<path fill="#BF9279" transform="matrix(0.0976562 0 0 0.0976562 0 1.90735e-06)" d="M149.898 525.119C160.852 524.386 171.293 524.767 182.22 525.047C188.45 525.206 194.689 524.973 200.919 525.22C208.375 525.516 215.812 526.348 223.237 527.069C226.975 527.431 231.162 527.172 234.771 527.976C214.235 528.923 193.823 529.073 173.27 528.61C166.183 528.451 158.239 528.906 151.3 527.544C149.689 527.228 148.228 526.484 146.786 525.728C147.931 525.675 148.81 525.475 149.898 525.119Z"/>
	<path fill="#83A0A3" fill-opacity="0.70588237" transform="matrix(0.0976562 0 0 0.0976562 0 1.90735e-06)" d="M107.168 520.075C116.921 519.97 128.018 517.746 137.57 519.498Q133.94 519.736 130.302 519.793C132.703 519.82 136.458 519.364 138.559 520.521C138.796 522.549 137.388 523.827 137.249 525.771L141.762 526.095C135.855 527.189 116.927 527.492 110.724 526.981C107.321 525.474 103.099 526.678 99.468 525.428C97.9655 524.911 97.4586 524.266 96.8038 522.864L97.0502 522.361C100.275 522.268 103.444 522.114 106.651 521.748C105.565 521.653 104.493 521.519 103.414 521.371C104.688 520.981 105.922 520.548 107.168 520.075Z"/>
	<path fill="#FEFEFE" transform="matrix(0.0976562 0 0 0.0976562 0 1.90735e-06)" d="M137.57 519.498C138.464 519.57 139.362 519.616 140.256 519.697C147.493 520.352 154.799 518.156 162.122 518.047C187.017 517.677 211.973 517.987 236.872 518.165C234.396 519.617 226.802 518.707 223.668 518.868C214.014 519.365 204.408 520.626 194.727 520.902C186.3 521.142 177.864 521.18 169.435 521.32C164.345 521.405 158.547 521.134 153.558 522.177C151.662 522.574 150.847 523.446 149.898 525.119C148.81 525.475 147.931 525.675 146.786 525.728L141.762 526.095L137.249 525.771C137.388 523.827 138.796 522.549 138.559 520.521C136.458 519.364 132.703 519.82 130.302 519.793Q133.94 519.736 137.57 519.498Z"/>
	<path fill="#FEFEFE" transform="matrix(0.0976562 0 0 0.0976562 0 1.90735e-06)" d="M21.4537 664.018C25.538 664.889 30.0717 664.588 34.2371 664.579C45.7574 664.553 57.2343 663.527 68.7293 663.511C83.2147 663.49 97.7353 664.993 112.212 664.438C119.067 664.613 130.718 663.763 136.739 664.819L137.287 667.316C129.785 668.505 121.093 667.638 113.451 667.91C95.6678 668.541 78.0298 669.255 60.2299 668.961C43.9232 668.691 27.7179 667.481 11.3857 667.559C12.4104 666.417 13.6442 665.427 14.7951 664.41C17.056 664.479 19.2138 664.268 21.4537 664.018Z"/>
	<path fill="#1E5C79" transform="matrix(0.0976562 0 0 0.0976562 0 1.90735e-06)" d="M907.435 408.504C920.358 408.642 935.2 405.216 945.352 415.385C947.084 417.119 948.6 419.126 949.569 421.39C939.488 422.79 928.51 425.203 918.365 425.251C915.967 425.263 910.758 422.219 909.201 423.795C909.162 423.834 909.14 423.887 909.109 423.933C909.094 423.803 909.059 423.674 909.064 423.543C909.284 417.829 911.834 413.811 915.48 409.627Q911.444 409.161 907.435 408.504Z"/>
	<path transform="matrix(0.0976562 0 0 0.0976562 0 1.90735e-06)" d="M909.109 423.933C909.14 423.887 909.162 423.834 909.201 423.795C910.758 422.219 915.967 425.263 918.365 425.251C928.51 425.203 939.488 422.79 949.569 421.39C949.659 430.751 947.526 436.918 942.147 444.481C939.754 445.253 937.14 445.657 934.679 446.2C929.146 444.572 925.088 442.302 920.231 439.188C914.913 434.973 911.336 430.392 909.109 423.933Z"/>
	<path fill="#1E5C79" transform="matrix(0.0976562 0 0 0.0976562 0 1.90735e-06)" d="M913.752 817.219C925.644 816.7 943.619 816.526 954.588 820.88C956.131 821.492 957.089 821.927 957.757 823.472C957.484 824.019 957.494 824.088 956.999 824.587C952.88 828.747 932.383 829.084 926.393 829.464C914.207 829.686 900.789 829.68 888.808 827.339C885.985 826.787 881.986 825.953 880.289 823.444C880.401 822.623 880.226 822.643 880.74 822.184C885.788 817.669 906.574 817.515 913.752 817.219Z"/>
	<path fill="#1E5C79" transform="matrix(0.0976562 0 0 0.0976562 0 1.90735e-06)" d="M96.4816 817.222C112.112 816.234 129.52 816.536 143.775 823.536C131.823 829.05 118.674 829.444 105.719 829.622C93.7457 829.668 81.1887 829.706 69.3714 827.728C66.8794 827.311 60.3641 826.354 58.8828 824.283L59.2626 823.184C66.3036 816.839 87.2685 817.576 96.4816 817.222Z"/>
	<path fill="#FEFEFE" transform="matrix(0.0976562 0 0 0.0976562 0 1.90735e-06)" d="M236.872 518.165Q274.365 517.116 311.863 517.116C311.256 518.617 309.929 518.978 308.47 519.597C299.643 523.348 288.559 524.479 279.171 526.692C277.489 527.089 275.096 527.159 273.601 527.766C262.241 529.102 246.461 528.219 234.771 527.976C231.162 527.172 226.975 527.431 223.237 527.069C215.812 526.348 208.375 525.516 200.919 525.22C194.689 524.973 188.45 525.206 182.22 525.047C171.293 524.767 160.852 524.386 149.898 525.119C150.847 523.446 151.662 522.574 153.558 522.177C158.547 521.134 164.345 521.405 169.435 521.32C177.864 521.18 186.3 521.142 194.727 520.902C204.408 520.626 214.014 519.365 223.668 518.868C226.802 518.707 234.396 519.617 236.872 518.165Z"/>
	<path fill="#FEFEFE" transform="matrix(0.0976562 0 0 0.0976562 0 1.90735e-06)" d="M753.076 664.908C760.507 685.301 770.304 716.453 760.967 737.485C759.162 741.551 756.224 745.16 751.959 746.751C747.407 748.448 742.807 747.326 738.599 745.231C726.051 738.986 717.843 725.801 710.16 714.602C727.152 700.237 740.34 683.038 753.076 664.908Z"/>
	<path fill="#BF9279" transform="matrix(0.0976562 0 0 0.0976562 0 1.90735e-06)" d="M284.468 728.367C289.451 728.964 294.356 730.171 299.319 730.93C303.696 731.601 308.355 731.796 312.646 732.759C311.997 738.798 310.05 747.863 314.238 752.917C318.606 758.187 327.215 757.317 333.338 758.3Q321.898 766.443 311.126 775.452C297.245 787.299 284.584 802.278 265.335 804.462C260.178 805.047 254.345 804.418 250.23 800.969C247.875 798.996 246.65 796.218 246.477 793.179C245.824 781.732 263.162 753.786 270.269 744.403C274.566 738.73 279.763 733.705 284.468 728.367Z"/>
	<path fill="#F49E37" transform="matrix(0.0976562 0 0 0.0976562 0 1.90735e-06)" d="M0 562.007L156.56 561.515C180.951 561.485 205.439 560.995 229.82 561.592C229.207 564.412 218.054 576.29 215.587 578.856C213.683 578.849 211.367 578.534 209.613 579.272C186.123 579.839 162.46 579.02 138.945 578.991L0 579.023L0 562.007Z"/>
	<path fill="#FEFEFE" transform="matrix(0.0976562 0 0 0.0976562 0 1.90735e-06)" d="M264.54 720.647C251.271 734.856 240.302 751.83 225.537 764.517C218.881 770.236 212.217 773.359 203.243 772.557C198.731 772.154 194.001 771.097 191.054 767.35C187.674 763.054 187.931 756.639 188.73 751.502C189.535 746.328 191.185 741.307 193.111 736.452C197.288 725.923 202.84 716.123 207.774 705.956C211.911 697.432 215.557 688.123 220.577 680.096C222.067 677.714 223.847 675.325 226.199 673.737C233.892 668.54 245.471 671.448 253.936 672.837C248.54 681.552 243.716 695.013 246.362 705.335C247.558 710.002 250.598 712.713 254.664 714.983C257.96 716.823 261.465 718.455 264.54 720.647Z"/>
	<path fill="#9C4E06" transform="matrix(0.0976562 0 0 0.0976562 0 1.90735e-06)" d="M393.527 705.867C414.545 704.786 436.318 704.81 457.358 705.59C441.173 730.496 406.166 751.459 377.692 757.548C362.753 760.743 348.371 759.758 333.338 758.3C327.215 757.317 318.606 758.187 314.238 752.917C310.05 747.863 311.997 738.798 312.646 732.759C312.808 732.785 312.97 732.813 313.132 732.837C334.119 735.988 360.222 727.436 378.066 716.784C383.452 713.569 388.456 709.566 393.527 705.867Z"/>
	<path fill="#9C4E06" transform="matrix(0.0976562 0 0 0.0976562 0 1.90735e-06)" d="M662.86 254.022C662.78 243.141 660.665 215.534 668.256 207.258C669.444 205.961 670.997 205.152 672.769 205.073C680.882 204.71 693.293 217.343 698.766 222.825C718.202 242.294 737.398 266.253 752.033 289.588C756.192 296.22 759.569 303.223 763.529 309.949C754.775 309.792 746.02 308.673 737.246 308.521C729.472 308.387 721.795 309.295 714.094 310.22C704.481 301.149 696.635 290.753 688.011 280.794C679.982 271.522 671.401 262.815 662.86 254.022Z"/>
	<path fill="#FEFEFE" transform="matrix(0.0976562 0 0 0.0976562 0 1.90735e-06)" d="M463.54 664.585C507.016 665.405 550.498 664.787 593.981 665.53C607.372 667.049 619.292 672.46 632.244 675.72C650.424 680.295 668.865 682.446 687.499 684.16C673.395 692.432 659.861 700.007 643.652 703.38C622.022 707.88 594.242 705.513 571.77 705.483L457.358 705.59C436.318 704.81 414.545 704.786 393.527 705.867C396.88 700.855 401.387 696.839 405.399 692.377C412.285 684.719 416.492 674.474 420.005 664.937C434.377 664.952 449.219 665.706 463.54 664.585Z"/>
	<path fill="#1E5C79" transform="matrix(0.0976562 0 0 0.0976562 0 1.90735e-06)" d="M421.759 807.73C433.527 807.17 445.461 807.558 457.249 807.504Q554.26 806.819 651.25 808.985Q731.007 809.858 810.6 815.03C819.082 815.617 852.233 816.75 857.481 821.538C858.06 822.065 857.891 822.403 857.92 823.116C854.01 828.657 821.064 830.618 813.108 831.203C809.199 831.49 804.29 831.315 800.55 832.332C800.262 832.411 799.976 832.498 799.689 832.581C821.455 833.851 843.285 834.348 865.068 835.603C874.183 836.128 883.662 836.176 892.661 837.701C895.339 838.155 898.778 838.683 900.795 840.588L900.718 841.509C886.58 852.211 630.277 854.726 592.092 855.144C585.39 855.662 578.492 855.379 571.767 855.41L535.538 855.586Q463.39 855.757 391.25 854.645Q309.055 854.27 226.902 851.64Q195.42 850.794 163.977 849.027C149.964 848.228 135.769 847.677 121.936 845.167C119.916 844.8 117.297 844.406 116.083 842.651C116.19 842.531 116.283 842.397 116.406 842.292C124.512 835.328 232.019 832.67 248.582 832.342C235.628 828.382 193.464 830.184 186.49 822.535C185.883 821.87 186.064 822.065 186.163 821.114C200.855 809.532 390.8 808.549 421.759 807.73Z"/>
	<path fill="#F49E37" transform="matrix(0.0976562 0 0 0.0976562 0 1.90735e-06)" d="M311.863 517.116C316.238 516.506 329.153 507.933 333.885 505.446C348.818 497.595 368.043 489.864 384.906 488.291C385.219 489.458 385.246 488.905 385.008 489.775C382.529 498.814 382.711 509.383 383.221 518.662C384.237 537.145 389.681 554.658 398.039 571.096C402.993 580.841 408.874 590.094 413.808 599.84C424.383 620.726 426.104 641.872 420.047 664.463L447.681 664.394C452.921 664.384 458.327 664.101 463.54 664.585C449.219 665.706 434.377 664.952 420.005 664.937C416.492 674.474 412.285 684.719 405.399 692.377C401.387 696.839 396.88 700.855 393.527 705.867C388.456 709.566 383.452 713.569 378.066 716.784C360.222 727.436 334.119 735.988 313.132 732.837C312.97 732.813 312.808 732.785 312.646 732.759C308.355 731.796 303.696 731.601 299.319 730.93C294.356 730.171 289.451 728.964 284.468 728.367C277.508 726.614 270.826 724.118 264.54 720.647C261.465 718.455 257.96 716.823 254.664 714.983C250.598 712.713 247.558 710.002 246.362 705.335C243.716 695.013 248.54 681.552 253.936 672.837C256.961 673.501 260.191 674.316 262.91 672.392C264.821 671.041 264.948 664.956 265.056 662.661C265.44 654.47 264.282 646.072 264.047 637.86C263.682 625.125 264.489 612.57 266 599.929C259.587 603.788 253.726 608.742 246.973 611.975C224.236 622.86 192.196 624.982 167.832 618.887Q165.455 618.289 163.092 617.64Q154.488 615.129 146.003 612.24C173.508 611.615 196.364 598.359 215.455 579.312L209.613 579.272C211.367 578.534 213.683 578.849 215.587 578.856C218.054 576.29 229.207 564.412 229.82 561.592C235.493 558.234 241.877 550.023 247.168 545.466C255.64 538.168 264.567 533.61 274.235 528.243L273.601 527.766C275.096 527.159 277.489 527.089 279.171 526.692C288.559 524.479 299.643 523.348 308.47 519.597C309.929 518.978 311.256 518.617 311.863 517.116Z"/>
	<path fill="#F49E37" transform="matrix(0.0976562 0 0 0.0976562 0 1.90735e-06)" d="M163.092 617.64C169.199 615.527 176.745 616.166 183.207 615.693C192.724 614.995 202.538 612.497 211.345 608.858C244.196 595.283 255.618 570.086 281.133 549.092C284.901 545.991 288.81 542.617 293.04 540.18C284.446 552.359 276.168 564.892 271.611 579.239C269.547 585.737 268.819 592.74 266.331 599.105L266 599.929C259.587 603.788 253.726 608.742 246.973 611.975C224.236 622.86 192.196 624.982 167.832 618.887Q165.455 618.289 163.092 617.64Z"/>
	<path fill="#F49E37" transform="matrix(0.0976562 0 0 0.0976562 0 1.90735e-06)" d="M584.948 350.881C583.255 347.943 582.219 343.914 581.051 340.678Q577.935 331.808 575.419 322.75Q572.902 313.691 570.996 304.485Q569.091 295.279 567.804 285.966Q566.517 276.653 565.855 267.275C564.77 252.019 564.325 222.766 575.001 211.038C577.588 208.197 581.03 206.586 584.868 206.417C606.592 205.458 647.168 240.124 662.86 254.022C671.401 262.815 679.982 271.522 688.011 280.794C696.635 290.753 704.481 301.149 714.094 310.22C721.795 309.295 729.472 308.387 737.246 308.521C746.02 308.673 754.775 309.792 763.529 309.949C768.079 311.408 772.855 313.355 777.53 314.267C795.465 316.705 819.009 332.027 829.975 346.319C834.552 352.284 837.997 358.968 840.904 365.879C845.551 376.928 848.608 392.097 858.54 399.7C863.315 403.355 870.071 404.94 875.91 405.753C886.337 407.206 896.961 407.411 907.435 408.504Q911.444 409.161 915.48 409.627C911.834 413.811 909.284 417.829 909.064 423.543C909.059 423.674 909.094 423.803 909.109 423.933C911.336 430.392 914.913 434.973 920.231 439.188C925.088 442.302 929.146 444.572 934.679 446.2C937.14 445.657 939.754 445.253 942.147 444.481C938.119 452.742 932.968 458.981 926.049 465.017C921.009 468.846 915.112 471.64 910.244 475.477C909.353 477.065 908.229 478.715 907.908 480.52C905.429 486.821 901.114 490.81 894.977 493.527C886.679 497.201 877.434 496.537 868.574 496.705C838.17 497.281 809.585 495.698 789.663 522.86Q785.893 527.944 782.825 533.48Q779.758 539.016 777.446 544.908C773.449 555.075 770.797 565.679 767.289 576.01C760.676 595.484 749.827 617.869 735.301 632.547C742.686 642.328 748.933 653.354 753.076 664.908C740.34 683.038 727.152 700.237 710.16 714.602C703.119 704.439 696.255 692.921 687.499 684.16C668.865 682.446 650.424 680.295 632.244 675.72C619.292 672.46 607.372 667.049 593.981 665.53C550.498 664.787 507.016 665.405 463.54 664.585C458.327 664.101 452.921 664.384 447.681 664.394L420.047 664.463C426.104 641.872 424.383 620.726 413.808 599.84C408.874 590.094 402.993 580.841 398.039 571.096C389.681 554.658 384.237 537.145 383.221 518.662C382.711 509.383 382.529 498.814 385.008 489.775C385.246 488.905 385.219 489.458 384.906 488.291C394.917 486.857 409.167 488.605 419.528 488.947C435.469 489.474 451.62 489.436 467.56 488.975C488.6 488.407 509.531 487.897 529.411 479.954C569.384 463.98 592.491 429.069 608.767 391.198C599.703 384.448 588.725 361.949 584.948 350.881Z"/>
	<path fill="#9C4E06" transform="matrix(0.0976562 0 0 0.0976562 0 1.90735e-06)" d="M584.948 350.881C589.841 357.75 593.018 366.583 597.245 373.962C601.703 371.84 615.7 365.863 617.365 361.36C617.632 360.636 617.309 359.35 617.194 358.636C624.484 368.418 632.009 376.863 643.451 381.8C632.408 386.082 619.545 385.933 608.767 391.198C599.703 384.448 588.725 361.949 584.948 350.881Z"/>
	<path transform="matrix(0.0976562 0 0 0.0976562 0 1.90735e-06)" d="M796.689 375.659C799.934 375.561 802.837 376.049 805.697 377.673Q806.456 378.109 807.168 378.62Q807.879 379.131 808.535 379.712Q809.19 380.292 809.784 380.936Q810.377 381.58 810.902 382.281Q811.427 382.982 811.878 383.733Q812.329 384.484 812.701 385.276Q813.074 386.069 813.364 386.895Q813.654 387.722 813.859 388.573Q814.071 389.426 814.197 390.296Q814.323 391.166 814.362 392.044Q814.401 392.923 814.352 393.8Q814.304 394.678 814.169 395.547Q814.034 396.415 813.813 397.266Q813.592 398.117 813.288 398.942Q812.984 399.767 812.6 400.558Q812.216 401.348 811.755 402.097C809.189 406.2 805.217 408.462 800.605 409.582C796.783 409.626 793.429 409.261 790.041 407.361Q789.331 406.972 788.664 406.513Q787.997 406.055 787.38 405.532Q786.762 405.009 786.199 404.427Q785.637 403.846 785.135 403.21Q784.633 402.575 784.198 401.893Q783.762 401.211 783.397 400.488Q783.032 399.766 782.741 399.011Q782.45 398.256 782.236 397.475C781.011 392.911 781.881 387.877 784.333 383.861C787.201 379.164 791.489 376.902 796.689 375.659Z"/>
	<path fill="#FEFEFE" transform="matrix(0.0976562 0 0 0.0976562 0 1.90735e-06)" d="M800.624 381.321C802.229 381.266 803.707 381.22 805.168 382.038C806.604 382.842 807.414 383.783 807.766 385.434C808.218 387.555 807.008 389.239 805.881 390.884C804.055 390.787 802.325 390.598 800.726 389.631C799.453 388.862 798.384 387.787 798.246 386.22C798.062 384.13 799.341 382.759 800.624 381.321Z"/>
	<path fill="#FEFEFE" transform="matrix(0.0976562 0 0 0.0976562 0 1.90735e-06)" d="M617.194 358.636C599.01 330.541 576.93 276.636 583.893 243.127C584.738 239.059 586.349 234.351 590.124 232.104C593.143 230.308 596.698 230.755 599.908 231.737C622.227 238.567 660.909 277.897 675.73 296.832Q679.628 301.755 683.034 307.03Q686.44 312.305 689.322 317.884C694.414 327.902 697.735 337.262 694.077 348.372C689.965 360.861 678.631 371.978 667.061 377.776C659.772 381.428 651.559 383.4 643.451 381.8C632.009 376.863 624.484 368.418 617.194 358.636Z"/>
	<path fill="#F49E37" transform="matrix(0.0976562 0 0 0.0976562 0 1.90735e-06)" d="M384.906 488.291C394.917 486.857 409.167 488.605 419.528 488.947C435.469 489.474 451.62 489.436 467.56 488.975C468.431 498.138 468.24 507.377 469.917 516.455C478.031 560.376 503.514 602.218 537.658 630.714C554.235 644.549 573.751 657.748 593.981 665.53C550.498 664.787 507.016 665.405 463.54 664.585C458.327 664.101 452.921 664.384 447.681 664.394L420.047 664.463C426.104 641.872 424.383 620.726 413.808 599.84C408.874 590.094 402.993 580.841 398.039 571.096C389.681 554.658 384.237 537.145 383.221 518.662C382.711 509.383 382.529 498.814 385.008 489.775C385.246 488.905 385.219 489.458 384.906 488.291Z"/>
	<path fill="#FEFEFE" transform="matrix(0.0976562 0 0 0.0976562 0 1.90735e-06)" d="M777.53 314.267C795.465 316.705 819.009 332.027 829.975 346.319C834.552 352.284 837.997 358.968 840.904 365.879C845.551 376.928 848.608 392.097 858.54 399.7C863.315 403.355 870.071 404.94 875.91 405.753C886.337 407.206 896.961 407.411 907.435 408.504Q911.444 409.161 915.48 409.627C911.834 413.811 909.284 417.829 909.064 423.543C909.059 423.674 909.094 423.803 909.109 423.933C911.336 430.392 914.913 434.973 920.231 439.188C925.088 442.302 929.146 444.572 934.679 446.2C937.14 445.657 939.754 445.253 942.147 444.481C938.119 452.742 932.968 458.981 926.049 465.017C921.009 468.846 915.112 471.64 910.244 475.477C909.353 477.065 908.229 478.715 907.908 480.52C905.429 486.821 901.114 490.81 894.977 493.527C886.679 497.201 877.434 496.537 868.574 496.705C838.17 497.281 809.585 495.698 789.663 522.86Q785.893 527.944 782.825 533.48Q779.758 539.016 777.446 544.908C773.449 555.075 770.797 565.679 767.289 576.01C760.676 595.484 749.827 617.869 735.301 632.547C727.138 622.268 719.38 612.03 709.877 602.898L708.921 602.099C688.225 584.932 664.676 572.794 637.325 572.184C628.906 571.996 620.599 572.947 612.235 573.734C616.799 571.203 621.498 568.949 625.983 566.265C643.325 555.886 659.01 543.341 674.193 530.075C650.236 538.954 620.399 536.885 595.58 533.066C602.225 530.198 609.404 528.704 616.11 525.942C632.746 519.091 645.987 507.576 659.358 495.892C650.975 496.419 643.788 495.694 635.978 492.432C621.512 486.389 611.978 474.524 606.2 460.227C612.125 465.234 618.051 469.108 625.39 471.757C643.603 478.333 658.557 472.988 675.285 465.193C684.226 467.409 690.511 467.349 699.43 464.952C691.16 465.379 683.894 464.975 676.434 461.066C667.023 456.135 662.173 448.953 659.117 438.945C664.313 442.628 669.493 446.477 675.497 448.75C696.628 456.752 709.202 440.734 724.371 429.349C733.357 422.606 743.457 417.132 754.478 414.651C775.116 410.004 779.472 421.819 796.212 427.636C804.707 430.588 814.425 430.634 823.293 430.076C836.284 429.259 847.906 427.945 856.941 417.735C841.142 403.32 836.278 388.475 827.104 370.059C821.772 359.356 815.383 348.986 807.499 339.966Q802.946 334.7 797.777 330.037Q792.607 325.374 786.901 321.386C783.795 319.195 780.472 317.393 777.452 315.068L777.53 314.267Z"/>
	<path fill="#FEFEFE" transform="matrix(0.0976562 0 0 0.0976562 0 1.90735e-06)" d="M920.231 439.188C925.088 442.302 929.146 444.572 934.679 446.2C937.14 445.657 939.754 445.253 942.147 444.481C938.119 452.742 932.968 458.981 926.049 465.017C921.009 468.846 915.112 471.64 910.244 475.477C909.353 477.065 908.229 478.715 907.908 480.52C884.663 480.476 848.257 476.606 827.953 464.414L825.07 463.633C821.259 460.685 817.193 457.163 815.439 452.531C814.311 449.55 814.298 447.019 815.658 444.152C820.511 444.925 824.987 446.765 829.559 448.486C839.648 452.284 849.584 456.081 860.484 456.576C878.275 457.384 906.78 451.54 920.231 439.188Z"/>
	<path transform="matrix(0.0976562 0 0 0.0976562 0 1.90735e-06)" d="M815.658 444.152C822.732 454.943 832.491 458.275 844.033 462.768C838.749 464.435 833.214 463.303 827.953 464.414L825.07 463.633C821.259 460.685 817.193 457.163 815.439 452.531C814.311 449.55 814.298 447.019 815.658 444.152Z"/>
	<path fill="#9C4E06" transform="matrix(0.0976562 0 0 0.0976562 0 1.90735e-06)" d="M879.247 468.997C887.559 468.927 896.008 468.715 904.266 467.74C911.45 466.892 918.837 465.231 926.049 465.017C921.009 468.846 915.112 471.64 910.244 475.477C908.542 475.917 908.052 476.677 906.819 477.899C902.163 475.674 897.544 473.606 892.453 472.582C888.812 471.851 884.87 471.503 881.327 470.444C880.377 470.16 879.896 469.714 879.247 468.997Z"/>
	<path fill="#9C4E06" transform="matrix(0.0976562 0 0 0.0976562 0 1.90735e-06)" d="M844.033 462.768C850.676 464.617 857.199 466.29 864.05 467.229C869.047 467.913 874.332 468.009 879.247 468.997C879.896 469.714 880.377 470.16 881.327 470.444C884.87 471.503 888.812 471.851 892.453 472.582C897.544 473.606 902.163 475.674 906.819 477.899C908.052 476.677 908.542 475.917 910.244 475.477C909.353 477.065 908.229 478.715 907.908 480.52C884.663 480.476 848.257 476.606 827.953 464.414C833.214 463.303 838.749 464.435 844.033 462.768Z"/>
	<path fill="#FEFEFE" transform="matrix(0.0976562 0 0 0.0976562 0 1.90735e-06)" d="M825.07 463.633L827.953 464.414C848.257 476.606 884.663 480.476 907.908 480.52C905.429 486.821 901.114 490.81 894.977 493.527C886.679 497.201 877.434 496.537 868.574 496.705C838.17 497.281 809.585 495.698 789.663 522.86Q785.893 527.944 782.825 533.48Q779.758 539.016 777.446 544.908C773.449 555.075 770.797 565.679 767.289 576.01C760.676 595.484 749.827 617.869 735.301 632.547C727.138 622.268 719.38 612.03 709.877 602.898C712.121 598.704 713.406 593.314 715.214 588.837C719.097 579.217 724.149 569.605 729.872 560.97C749.059 532.013 779.528 502.962 814.169 494.876C828.47 491.537 843.428 491.352 857.885 488.394C845.81 480.834 830.897 478.325 825.07 463.633Z"/>
</svg>
