<?xml version="1.0" encoding="utf-8" ?>
<svg xmlns="http://www.w3.org/2000/svg" xmlns:xlink="http://www.w3.org/1999/xlink" viewBox="30 130 65 30" width="50" height="40">
	<path id="mouth-outline" fill="#101416" transform="scale(0.195312 0.195312)" d="M122.655 617.933C123.557 616.362 123.974 616.537 125.658 616.045C128.336 626.406 132.397 644.089 138.67 652.537C139.899 654.193 141.59 655.364 143.355 656.389C153.134 662.068 164.816 665.977 175.605 669.278Q180.208 670.672 184.857 671.906Q189.505 673.14 194.194 674.213Q198.882 675.285 203.605 676.195Q208.328 677.104 213.08 677.85Q217.831 678.596 222.605 679.177Q227.38 679.758 232.171 680.173Q236.963 680.588 241.766 680.838Q246.569 681.087 251.378 681.17Q256.187 681.253 260.996 681.17Q265.805 681.086 270.608 680.836Q275.411 680.587 280.203 680.171Q284.995 679.755 289.769 679.174Q294.543 678.593 299.295 677.846Q304.046 677.1 308.769 676.19Q313.492 675.28 318.18 674.207Q322.868 673.135 327.517 671.9C356.535 663.966 384.831 651.87 411.556 638.116C423.445 631.997 435.12 624.666 447.281 619.187C449.242 618.304 452.069 617.421 454.147 618.389C455.501 619.02 456.174 620.291 456.491 621.683C457.543 626.306 455.691 632.252 454.556 636.752C448.499 660.751 437.641 681.716 423.834 702.13C392.87 747.912 338.196 777.188 286.461 792.848C285.735 790.732 287.237 787.285 287.836 785.181C318.75 775.23 346.334 761.123 372.76 742.309C373.211 742.07 373.321 742.022 373.806 741.701C409.173 718.318 440.451 669.586 448.005 627.965C433.374 635.126 419.373 643.535 404.72 650.717C357.193 674.013 304.837 690.973 251.341 688.588Q231.109 688.241 211.105 685.189C188.322 681.494 153.253 671.484 136.279 655.849Q133.818 651.426 131.725 646.818Q129.632 642.21 127.92 637.447Q126.209 632.684 124.89 627.797Q123.572 622.911 122.655 617.933Z"/>
	<path id="mouth-red" fill="#A03031" transform="scale(0.195312 0.195312)" d="M251.341 688.588C304.837 690.973 357.193 674.013 404.72 650.717C419.373 643.535 433.374 635.126 448.005 627.965C440.451 669.586 409.173 718.318 373.806 741.701C373.321 742.022 373.211 742.07 372.76 742.309C367.638 733.79 362.517 726.957 353.811 721.835C332.393 709.236 307.26 713.379 284.452 719.229Q283.464 718.193 282.382 717.255Q281.3 716.317 280.134 715.486Q278.969 714.654 277.73 713.937Q276.49 713.22 275.189 712.623C258.776 705.102 243.03 712.982 227.604 718.739C235.195 712.481 248.749 698.103 251.341 688.588Z"/>
	<path id="tongue-red" fill="#E89A8A" transform="scale(0.195312 0.195312)" d="M227.604 718.739C243.03 712.982 258.776 705.102 275.189 712.623Q276.49 713.22 277.73 713.937Q278.969 714.654 280.134 715.486Q281.3 716.317 282.382 717.255Q283.464 718.193 284.452 719.229C307.26 713.379 332.393 709.236 353.811 721.835C362.517 726.957 367.638 733.79 372.76 742.309C346.334 761.123 318.75 775.23 287.836 785.181C287.237 787.285 285.735 790.732 286.461 792.848C284.16 795.372 282.51 801.423 280.984 804.643C277.948 811.049 274.159 818.253 269.681 823.808C267.551 826.45 260.03 832.982 259.463 835.664C255.948 836.685 251.945 839.948 248.694 841.794C233.971 850.157 217.019 852.488 200.629 847.813Q199.354 847.448 198.098 847.022Q196.842 846.595 195.608 846.109Q194.374 845.622 193.166 845.076Q191.957 844.529 190.776 843.925Q189.596 843.321 188.446 842.66Q187.296 841.999 186.179 841.283Q185.063 840.567 183.982 839.797Q182.902 839.028 181.86 838.207Q180.819 837.386 179.818 836.515Q178.817 835.645 177.86 834.726Q176.903 833.808 175.992 832.845Q175.08 831.881 174.217 830.874Q173.353 829.867 172.54 828.82Q171.726 827.772 170.965 826.687Q170.203 825.601 169.495 824.479Q168.787 823.358 168.134 822.203C161.022 809.367 160.236 794.106 164.347 780.154C170.599 758.938 186.81 742.245 205.256 730.864C212.449 726.426 220.16 722.745 227.604 718.739Z"/>
	<path id="tongue-outline" fill="#B65F5E" transform="scale(0.195312 0.195312)" d="M266.289 724.693C267.282 724.639 268.132 724.634 269.113 724.804L268.52 724.821C266.912 726.295 260.201 727.928 257.795 729.017C252.157 731.569 247.264 735.006 242.809 739.282C226.671 754.767 218.819 776.183 218.453 798.323L218.279 800.863L218.579 800.456C217.788 799.569 217.999 800.068 217.876 798.874C215.939 780.031 221.372 757.318 233.444 742.494C242.029 731.953 252.778 726.093 266.289 724.693Z"/>
</svg>
