<?xml version="1.0" encoding="utf-8" ?>
<svg xmlns="http://www.w3.org/2000/svg" xmlns:xlink="http://www.w3.org/1999/xlink" viewBox="80 70 80 60" width="60" height="30">
    <path id="eyebrow" fill="#101416" transform="scale(0.25 0.25)" d="M291.043 344.819C297.951 339.322 305.274 336.4 314.262 337.427C321.156 338.214 326.967 341.348 332.432 345.473C318.093 342.798 305.224 345.348 293.17 353.547C286.057 358.385 280.945 364.216 274.712 369.907C278.64 360.233 283.462 352.031 291.043 344.819Z"/>
    <path id="eye" fill="#101416" transform="scale(0.25 0.25)" d="M264.474 428.302C264.91 422.239 266.534 416.265 269.626 411.008C272.839 405.545 277.645 401.189 283.939 399.721Q284.472 399.602 285.01 399.509Q285.549 399.416 286.091 399.349Q286.633 399.282 287.178 399.242Q287.723 399.202 288.269 399.188Q288.815 399.174 289.361 399.186Q289.907 399.199 290.452 399.238Q290.997 399.277 291.539 399.343Q292.081 399.408 292.62 399.5Q293.158 399.591 293.692 399.709Q294.225 399.827 294.752 399.97Q295.279 400.114 295.799 400.283Q296.318 400.452 296.829 400.646Q297.34 400.839 297.84 401.058Q298.341 401.276 298.831 401.519Q299.32 401.761 299.797 402.027Q300.274 402.293 300.738 402.582C303.715 404.464 307.251 408.268 307.991 411.803C310.334 415.27 311.479 417.54 310.838 421.748C311.545 433.195 305.285 442.139 298.08 450.379C295.506 452.532 292.903 454.252 290.047 456.004C283.531 456.183 277.372 454.412 272.482 449.944C266.048 444.066 264.775 436.553 264.474 428.302Z"/>
    <path id="eye-white" fill="#FEFEFE" transform="scale(0.25 0.25)" d="M310.838 421.748C309.471 423.45 308.089 425.027 306.021 425.875C303.412 426.945 299.627 426.68 297.116 425.441C295.052 424.424 293.51 422.68 292.795 420.486Q292.653 420.055 292.555 419.612Q292.456 419.169 292.402 418.719Q292.347 418.268 292.337 417.814Q292.327 417.361 292.361 416.908Q292.395 416.456 292.474 416.009Q292.552 415.562 292.674 415.125Q292.796 414.688 292.961 414.265Q293.125 413.842 293.33 413.437C294.377 411.404 296.221 409.832 298.459 409.289C301.874 408.461 305.206 409.959 307.991 411.803C310.334 415.27 311.479 417.54 310.838 421.748Z"/>
    <path id="eyebrow-2" fill="101416" transform="scale(0.25 0.25)" d="M476.933 363.678Q478.962 363.515 480.998 363.481C493.29 363.396 504.655 368.663 513.316 377.237C529.284 393.042 536.299 419.424 536.475 441.338C535.192 436.802 533.849 432.328 532.294 427.875C526.995 414.082 520.241 401.381 509.6 390.935C495.013 376.615 477.717 370.295 457.478 370.501C463.928 367.048 469.679 364.746 476.933 363.678Z"/>
    <path id="eye-2" fill="#101416" transform="scale(0.25 0.25)" d="M489.788 446.979C492.559 453.398 493.673 460.626 492.536 467.551C491.11 476.243 485.921 484.225 478.79 489.341Q478.086 489.854 477.358 490.332Q476.63 490.809 475.879 491.25Q475.128 491.691 474.356 492.095Q473.584 492.498 472.793 492.862Q472.002 493.227 471.194 493.552Q470.386 493.876 469.563 494.161Q468.74 494.445 467.904 494.688Q467.068 494.932 466.22 495.133Q465.373 495.335 464.517 495.494Q463.661 495.653 462.798 495.77Q461.935 495.886 461.067 495.96Q460.199 496.034 459.329 496.065Q458.459 496.095 457.588 496.083Q456.717 496.07 455.848 496.014Q454.979 495.959 454.114 495.86Q453.248 495.761 452.389 495.62C442.816 493.965 434.683 488.513 429.212 480.526C423.692 472.467 421.027 462.598 422.877 452.901Q423.038 452.037 423.241 451.182Q423.445 450.327 423.69 449.484Q423.936 448.64 424.223 447.809Q424.51 446.979 424.838 446.164Q425.166 445.348 425.534 444.55Q425.902 443.752 426.309 442.974Q426.716 442.195 427.161 441.437Q427.606 440.68 428.088 439.945Q428.571 439.211 429.089 438.501Q429.607 437.791 430.16 437.108Q430.712 436.425 431.298 435.77Q431.884 435.115 432.502 434.49Q433.119 433.865 433.767 433.271Q434.415 432.678 435.092 432.117Q435.768 431.556 436.472 431.03Q437.175 430.503 437.904 430.012C445.401 425.032 454.751 423.54 463.513 425.33C468.795 426.409 479.03 430.434 481.727 435.213C" />
	<path id="eye-white-2" fill="#FEFEFE" transform="scale(0.25 0.25)" d="M489.788 446.979Q489.705 447.753 489.598 448.525C489.085 452.155 487.447 455.464 484.371 457.594C481.296 459.724 477.034 460.655 473.371 459.843C470.049 459.107 467.265 456.967 465.498 454.082Q465.162 453.524 464.882 452.935Q464.602 452.347 464.381 451.734Q464.16 451.122 464 450.49Q463.839 449.859 463.741 449.215Q463.643 448.57 463.609 447.92Q463.574 447.269 463.603 446.619Q463.632 445.968 463.724 445.323Q463.816 444.678 463.971 444.045C464.721 441.001 466.565 438.3 469.278 436.688C473.174 434.374 477.709 434.629 481.934 435.706C486.147 437.917 487.939 441.056 489.369 445.502C489.526 445.989 489.663 446.482 489.788 446.979Z"/>
</svg>
