<?xml version="1.0" encoding="utf-8" ?>
<svg xmlns="http://www.w3.org/2000/svg" xmlns:xlink="http://www.w3.org/1999/xlink" width="200" height="200">
	<!-- <path fill="#FEC50F" transform="scale(0.195312 0.195312)" d="M0 0L1024 0L1024 938.99L1024 1024L540.037 1024L270.867 1024L0 1024L0 0Z"/> -->
	<path fill="#FEFEFE" transform="scale(0.195312 0.195312)" d="M74.6057 568.401C83.2754 583.956 95.0073 597.529 109.649 607.752C112.141 609.492 120.572 613.939 122.143 616.042C122.535 616.565 122.573 617.31 122.655 617.933Q123.572 622.911 124.89 627.797Q126.209 632.684 127.92 637.447Q129.632 642.21 131.725 646.818Q133.818 651.426 136.279 655.849C132.109 656.439 127.656 657.313 123.434 656.898C114.584 656.025 107.143 648.201 101.907 641.594C88.8312 625.092 81.1387 602.708 76.5207 582.28C75.5402 577.942 74.0849 572.813 74.6057 568.401Z"/>
	<path fill="#E48211" transform="scale(0.195312 0.195312)" d="M870.708 508.331C873.232 518.8 876.897 529.045 879.76 539.436Q887.718 568.493 892.524 598.234C895.692 618.443 897.221 639.002 898.268 659.421C898.73 668.45 898.314 677.837 899.411 686.789C901.646 705.027 906.318 723.257 911.262 740.923C925.498 791.784 945.17 840.961 976.593 883.798C988.929 900.615 1003.95 915.036 1017.46 930.839C1016.62 930.651 1015.89 930.316 1015.18 929.833C1005.25 923.079 991.08 907.823 982.722 898.599C949.022 861.408 925.812 815.52 911.119 767.738C904.148 745.068 898.881 721.654 893.433 698.563C892.456 694.418 892.793 690.121 891.834 686.152C891.757 685.833 891.667 685.517 891.583 685.2C891.171 676.843 891.272 668.475 890.762 660.116C889.205 656.325 888.062 630.088 887.332 623.372C884.152 594.111 879.349 565.446 872.073 536.906C870.206 529.583 868.676 521.552 865.821 514.571C867.204 512.357 869.054 510.351 870.708 508.331Z"/>
	<path fill="#F5931D" transform="scale(0.195312 0.195312)" d="M783.744 173.774C808.023 154.55 864.735 110.418 896.491 113.876C909.295 115.271 919.649 122.003 927.565 131.996C956.828 168.935 954.354 247.608 948.806 292.469Q948.577 294.261 948.299 296.047C948.057 294.592 948.053 293.111 947.814 291.643C944.133 289.318 936.002 288.258 933.989 286.159C931.592 283.658 929.137 274.424 926.97 273.514C924.76 272.585 922.209 273.921 920.097 274.672C917.765 273.401 918.293 269.442 915.7 268.154C914.335 268.622 914.132 269.09 913.245 270.193C915.52 245.356 914.736 196.405 899.744 176.054C895.179 169.858 888.724 165.492 881.01 164.338C855.623 160.541 816.604 187.908 796.594 202.474C796.125 201.432 795.926 200.853 796.005 199.706C796.531 198.969 797.057 198.231 797.54 197.466C799.86 193.789 796.145 184.428 795.197 180.071C794.217 178.944 793.423 177.571 792.359 176.523C791.399 175.576 790.548 175.586 789.292 175.518C788.376 175.469 787.736 175.478 786.853 175.145C785.812 174.752 784.765 174.226 783.744 173.774Z"/>
	<defs>
		<linearGradient id="gradient_0" gradientUnits="userSpaceOnUse" x1="903.71289" y1="544.9538" x2="852.79291" y2="279.95312">
			<stop offset="0" stop-color="#CD5700"/>
			<stop offset="1" stop-color="#F8A423"/>
		</linearGradient>
	</defs>
	<path fill="url(#gradient_0)" transform="scale(0.195312 0.195312)" d="M913.245 270.193C914.132 269.09 914.335 268.622 915.7 268.154C918.293 269.442 917.765 273.401 920.097 274.672C922.209 273.921 924.76 272.585 926.97 273.514C929.137 274.424 931.592 283.658 933.989 286.159C936.002 288.258 944.133 289.318 947.814 291.643C948.053 293.111 948.057 294.592 948.299 296.047C940.473 365.806 912.911 451.78 870.708 508.331C869.054 510.351 867.204 512.357 865.821 514.571C853.653 530.446 831.162 553.848 814.024 563.806Q812.787 548.339 809.861 533.1C809.264 530.012 806.698 522.126 807.099 519.566C873.346 452.315 904.582 362.662 913.245 270.193Z"/>
	<path fill="#C35E11" transform="scale(0.195312 0.195312)" d="M341.093 293.448Q340.151 279.006 340.362 264.534Q340.573 250.063 341.936 235.654C347.008 185.505 365.503 122.987 393.959 81.1182C406.048 63.3299 425.451 41.6376 447.755 37.5445C459.644 35.3628 468.85 40.2549 475.923 49.4932C488.614 66.0673 493.361 90.1628 498.956 109.906Q504.825 130.282 510.929 150.589C516.596 168.959 526.162 194.083 535.581 210.788C549.07 234.712 567.563 252.202 590.035 267.467C586.004 267.946 553.944 261.607 547.49 260.563C538.992 258.889 521.765 256.141 513.467 256.746C509.156 254.705 502.378 254.807 497.594 254.508C463.379 252.366 426.919 258.456 394.719 270.019C375.984 276.748 358.969 285.495 342.076 295.951C341.227 295.017 341.326 294.651 341.093 293.448Z"/>
	<path fill="#EED7B2" transform="scale(0.195312 0.195312)" d="M796.594 202.474C816.604 187.908 855.623 160.541 881.01 164.338C888.724 165.492 895.179 169.858 899.744 176.054C914.736 196.405 915.52 245.356 913.245 270.193C904.582 362.662 873.346 452.315 807.099 519.566C804.495 513.849 803.294 505.813 801.423 499.651C798.606 490.375 794.947 481.24 791.257 472.284C774.082 430.595 740.458 380.365 705.959 351.097C697.985 344.332 689.432 338.573 680.392 333.331C677.768 334.056 675.163 334.473 672.444 334.591C658.717 335.187 644.746 328.713 634.77 319.52C626.398 311.805 622.285 303.039 621.865 291.667C636.475 289.377 650.346 283.6 661.651 273.833C667.53 270.478 673.074 266.034 678.432 261.912C691.921 251.536 704.741 240.384 717.482 229.113C738.936 210.137 760.738 190.834 783.744 173.774C784.765 174.226 785.812 174.752 786.853 175.145C787.736 175.478 788.376 175.469 789.292 175.518C790.548 175.586 791.399 175.576 792.359 176.523C793.423 177.571 794.217 178.944 795.197 180.071C796.145 184.428 799.86 193.789 797.54 197.466C797.057 198.231 796.531 198.969 796.005 199.706C795.926 200.853 796.125 201.432 796.594 202.474Z"/>
	<defs>
		<linearGradient id="gradient_1" gradientUnits="userSpaceOnUse" x1="650.37018" y1="330.0289" x2="770.30609" y2="160.18111">
			<stop offset="0" stop-color="#CD5C05"/>
			<stop offset="1" stop-color="#F7A023"/>
		</linearGradient>
	</defs>
	<path fill="url(#gradient_1)" transform="scale(0.195312 0.195312)" d="M783.744 173.774C784.765 174.226 785.812 174.752 786.853 175.145C787.736 175.478 788.376 175.469 789.292 175.518C790.548 175.586 791.399 175.576 792.359 176.523C793.423 177.571 794.217 178.944 795.197 180.071C796.145 184.428 799.86 193.789 797.54 197.466C797.057 198.231 796.531 198.969 796.005 199.706C795.926 200.853 796.125 201.432 796.594 202.474C770.838 222.422 749.977 241.067 729.039 266.273Q722.347 274.217 716.281 282.65Q710.216 291.083 704.813 299.955C699.651 308.558 695.124 318.923 688.696 326.581C686.357 329.368 683.417 331.372 680.392 333.331C677.768 334.056 675.163 334.473 672.444 334.591C658.717 335.187 644.746 328.713 634.77 319.52C626.398 311.805 622.285 303.039 621.865 291.667C636.475 289.377 650.346 283.6 661.651 273.833C667.53 270.478 673.074 266.034 678.432 261.912C691.921 251.536 704.741 240.384 717.482 229.113C738.936 210.137 760.738 190.834 783.744 173.774Z"/>
	<path fill="#FEFEFE" transform="scale(0.195312 0.195312)" d="M341.093 293.448C341.326 294.651 341.227 295.017 342.076 295.951C358.969 285.495 375.984 276.748 394.719 270.019C426.919 258.456 463.379 252.366 497.594 254.508C502.378 254.807 509.156 254.705 513.467 256.746C521.765 256.141 538.992 258.889 547.49 260.563C553.944 261.607 586.004 267.946 590.035 267.467C605.774 274.177 626.738 277.038 643.605 275.965C649.67 275.58 655.617 274.291 661.651 273.833C650.346 283.6 636.475 289.377 621.865 291.667C622.285 303.039 626.398 311.805 634.77 319.52C644.746 328.713 658.717 335.187 672.444 334.591C675.163 334.473 677.768 334.056 680.392 333.331C689.432 338.573 697.985 344.332 705.959 351.097C740.458 380.365 774.082 430.595 791.257 472.284C794.947 481.24 798.606 490.375 801.423 499.651C803.294 505.813 804.495 513.849 807.099 519.566C806.698 522.126 809.264 530.012 809.861 533.1Q812.787 548.339 814.024 563.806C831.162 553.848 853.653 530.446 865.821 514.571C868.676 521.552 870.206 529.583 872.073 536.906C879.349 565.446 884.152 594.111 887.332 623.372C888.062 630.088 889.205 656.325 890.762 660.116C891.272 668.475 891.171 676.843 891.583 685.2C891.667 685.517 891.757 685.833 891.834 686.152C892.793 690.121 892.456 694.418 893.433 698.563C898.881 721.654 904.148 745.068 911.119 767.738C925.812 815.52 949.022 861.408 982.722 898.599C991.08 907.823 1005.25 923.079 1015.18 929.833C1015.89 930.316 1016.62 930.651 1017.46 930.839C1019.87 933.421 1021.94 936.122 1024 938.99L1024 1024L540.037 1024L270.867 1024C270.295 1017.08 269.066 1010.23 268.55 1003.3C266.889 980.987 266.938 959.101 268.11 936.781C268.463 911.156 272.126 884.719 277.068 859.614C278.773 850.955 281.026 842.429 282.784 833.786C275.057 835.046 267.27 835.325 259.463 835.664C255.948 836.685 251.945 839.948 248.694 841.794C233.971 850.157 217.019 852.488 200.629 847.813Q199.354 847.448 198.098 847.022Q196.842 846.595 195.608 846.109Q194.374 845.622 193.166 845.076Q191.957 844.529 190.776 843.925Q189.596 843.321 188.446 842.66Q187.296 841.999 186.179 841.283Q185.063 840.567 183.982 839.797Q182.902 839.028 181.86 838.207Q180.819 837.386 179.818 836.515Q178.817 835.645 177.86 834.726Q176.903 833.808 175.992 832.845Q175.08 831.881 174.217 830.874Q173.353 829.867 172.54 828.82Q171.726 827.772 170.965 826.687Q170.203 825.601 169.495 824.479Q168.787 823.358 168.134 822.203C161.022 809.367 160.236 794.106 164.347 780.154C170.599 758.938 186.81 742.245 205.256 730.864C212.449 726.426 220.16 722.745 227.604 718.739C235.195 712.481 248.749 698.103 251.341 688.588Q231.109 688.241 211.105 685.189C188.322 681.494 153.253 671.484 136.279 655.849Q133.818 651.426 131.725 646.818Q129.632 642.21 127.92 637.447Q126.209 632.684 124.89 627.797Q123.572 622.911 122.655 617.933C122.573 617.31 122.535 616.565 122.143 616.042C120.572 613.939 112.141 609.492 109.649 607.752C95.0073 597.529 83.2754 583.956 74.6057 568.401C71.7445 561.407 70.3756 552.982 69.7518 545.473C68.8736 534.901 70.8413 525.159 77.8665 516.938C90.6141 502.022 112.438 499.396 130.877 498.022C131.473 497.666 132.068 497.301 132.76 497.163C138.123 496.092 143.882 495.923 149.335 495.16Q171.249 492.054 193.085 488.438C201.535 487.051 210.325 485.958 218.577 483.662C222.829 480.216 228.289 477.911 232.811 474.727C248.997 463.333 256.98 449.165 262.939 430.683C264.171 423.791 263.714 416.474 264.321 409.481C265.208 399.26 267.843 389.521 270.823 379.748C271.704 376.859 272.703 372.071 274.712 369.907C278.64 360.233 283.462 352.031 291.043 344.819C291.055 344.578 291.059 344.337 291.079 344.097C291.725 336.601 318.577 312.99 325.865 307.423C330.4 303.959 336.061 301.189 340.159 297.27C341.277 296.201 341.007 294.892 341.093 293.448Z"/>
	<path fill="#E48211" transform="scale(0.195312 0.195312)" d="M264.474 428.302C264.775 436.553 266.048 444.066 272.482 449.944C277.372 454.412 283.531 456.183 290.047 456.004C270.171 470.159 242.701 480.051 218.577 483.662C222.829 480.216 228.289 477.911 232.811 474.727C248.997 463.333 256.98 449.165 262.939 430.683C263.739 429.899 264.074 429.348 264.474 428.302Z"/>
	<path id="mouth-outline" fill="#101416" transform="scale(0.195312 0.195312)" d="M122.655 617.933C123.557 616.362 123.974 616.537 125.658 616.045C128.336 626.406 132.397 644.089 138.67 652.537C139.899 654.193 141.59 655.364 143.355 656.389C153.134 662.068 164.816 665.977 175.605 669.278Q180.208 670.672 184.857 671.906Q189.505 673.14 194.194 674.213Q198.882 675.285 203.605 676.195Q208.328 677.104 213.08 677.85Q217.831 678.596 222.605 679.177Q227.38 679.758 232.171 680.173Q236.963 680.588 241.766 680.838Q246.569 681.087 251.378 681.17Q256.187 681.253 260.996 681.17Q265.805 681.086 270.608 680.836Q275.411 680.587 280.203 680.171Q284.995 679.755 289.769 679.174Q294.543 678.593 299.295 677.846Q304.046 677.1 308.769 676.19Q313.492 675.28 318.18 674.207Q322.868 673.135 327.517 671.9C356.535 663.966 384.831 651.87 411.556 638.116C423.445 631.997 435.12 624.666 447.281 619.187C449.242 618.304 452.069 617.421 454.147 618.389C455.501 619.02 456.174 620.291 456.491 621.683C457.543 626.306 455.691 632.252 454.556 636.752C448.499 660.751 437.641 681.716 423.834 702.13C392.87 747.912 338.196 777.188 286.461 792.848C285.735 790.732 287.237 787.285 287.836 785.181C318.75 775.23 346.334 761.123 372.76 742.309C373.211 742.07 373.321 742.022 373.806 741.701C409.173 718.318 440.451 669.586 448.005 627.965C433.374 635.126 419.373 643.535 404.72 650.717C357.193 674.013 304.837 690.973 251.341 688.588Q231.109 688.241 211.105 685.189C188.322 681.494 153.253 671.484 136.279 655.849Q133.818 651.426 131.725 646.818Q129.632 642.21 127.92 637.447Q126.209 632.684 124.89 627.797Q123.572 622.911 122.655 617.933Z"/>
	<path id="mouth-red" fill="#A03031" transform="scale(0.195312 0.195312)" d="M251.341 688.588C304.837 690.973 357.193 674.013 404.72 650.717C419.373 643.535 433.374 635.126 448.005 627.965C440.451 669.586 409.173 718.318 373.806 741.701C373.321 742.022 373.211 742.07 372.76 742.309C367.638 733.79 362.517 726.957 353.811 721.835C332.393 709.236 307.26 713.379 284.452 719.229Q283.464 718.193 282.382 717.255Q281.3 716.317 280.134 715.486Q278.969 714.654 277.73 713.937Q276.49 713.22 275.189 712.623C258.776 705.102 243.03 712.982 227.604 718.739C235.195 712.481 248.749 698.103 251.341 688.588Z"/>
	<path id="chin-shadow" fill="#DBD6D3" transform="scale(0.195312 0.195312)" d="M282.784 833.786C326.858 825.94 365.034 812.613 404.603 791.714C412.464 787.562 420.058 782.918 427.827 778.6C439.028 772.376 460.741 759.625 469.59 751.216L470.071 751.263L470.056 751.242L468.89 752.071L469.113 752.614C449.041 774.925 428.637 797.164 407.115 818.09Q373.322 850.377 337.29 880.145Q314.113 899.377 290.106 917.564C285.464 921.09 272.701 929.38 269.413 932.941C268.448 933.985 268.385 935.416 268.11 936.781C268.463 911.156 272.126 884.719 277.068 859.614C278.773 850.955 281.026 842.429 282.784 833.786Z"/>
	<path id="snout" fill="#101416" transform="scale(0.195312 0.195312)" d="M130.877 498.022C152.482 501.848 183.818 509.538 197.094 528.227C201.826 534.888 203.272 542.959 201.842 550.937C198.285 570.774 181.955 586.446 166.004 597.306C157.614 603.018 147.889 608.521 138.391 612.052C134.206 613.607 129.847 614.555 125.658 616.045C123.974 616.537 123.557 616.362 122.655 617.933C122.573 617.31 122.535 616.565 122.143 616.042C120.572 613.939 112.141 609.492 109.649 607.752C95.0073 597.529 83.2754 583.956 74.6057 568.401C71.7445 561.407 70.3756 552.982 69.7518 545.473C68.8736 534.901 70.8413 525.159 77.8665 516.938C90.6141 502.022 112.438 499.396 130.877 498.022Z"/>
	<path id="face-orange" fill="#F5931D" transform="scale(0.195312 0.195312)" d="M341.093 293.448C341.326 294.651 341.227 295.017 342.076 295.951C358.969 285.495 375.984 276.748 394.719 270.019C426.919 258.456 463.379 252.366 497.594 254.508C502.378 254.807 509.156 254.705 513.467 256.746C504.897 258.192 496.266 259.542 487.922 262.031C439.224 276.56 400.486 312.554 371.65 353.148C357.882 372.528 347.746 394.183 334.052 413.578C327.147 423.358 319.328 431.987 310.713 440.291C307.178 443.698 302.787 448.707 298.08 450.379C295.506 452.532 292.903 454.252 290.047 456.004C283.531 456.183 277.372 454.412 272.482 449.944C266.048 444.066 264.775 436.553 264.474 428.302C264.074 429.348 263.739 429.899 262.939 430.683C264.171 423.791 263.714 416.474 264.321 409.481C265.208 399.26 267.843 389.521 270.823 379.748C271.704 376.859 272.703 372.071 274.712 369.907C278.64 360.233 283.462 352.031 291.043 344.819C291.055 344.578 291.059 344.337 291.079 344.097C291.725 336.601 318.577 312.99 325.865 307.423C330.4 303.959 336.061 301.189 340.159 297.27C341.277 296.201 341.007 294.892 341.093 293.448Z"/>
	<path id="eyebrow" fill="#101416" transform="scale(0.195312 0.195312)" d="M291.043 344.819C297.951 339.322 305.274 336.4 314.262 337.427C321.156 338.214 326.967 341.348 332.432 345.473C318.093 342.798 305.224 345.348 293.17 353.547C286.057 358.385 280.945 364.216 274.712 369.907C278.64 360.233 283.462 352.031 291.043 344.819Z"/>
	<path id="eye" fill="#101416" transform="scale(0.195312 0.195312)" d="M264.474 428.302C264.91 422.239 266.534 416.265 269.626 411.008C272.839 405.545 277.645 401.189 283.939 399.721Q284.472 399.602 285.01 399.509Q285.549 399.416 286.091 399.349Q286.633 399.282 287.178 399.242Q287.723 399.202 288.269 399.188Q288.815 399.174 289.361 399.186Q289.907 399.199 290.452 399.238Q290.997 399.277 291.539 399.343Q292.081 399.408 292.62 399.5Q293.158 399.591 293.692 399.709Q294.225 399.827 294.752 399.97Q295.279 400.114 295.799 400.283Q296.318 400.452 296.829 400.646Q297.34 400.839 297.84 401.058Q298.341 401.276 298.831 401.519Q299.32 401.761 299.797 402.027Q300.274 402.293 300.738 402.582C303.715 404.464 307.251 408.268 307.991 411.803C310.334 415.27 311.479 417.54 310.838 421.748C311.545 433.195 305.285 442.139 298.08 450.379C295.506 452.532 292.903 454.252 290.047 456.004C283.531 456.183 277.372 454.412 272.482 449.944C266.048 444.066 264.775 436.553 264.474 428.302Z"/>
	<path id="eye-white" fill="#FEFEFE" transform="scale(0.195312 0.195312)" d="M310.838 421.748C309.471 423.45 308.089 425.027 306.021 425.875C303.412 426.945 299.627 426.68 297.116 425.441C295.052 424.424 293.51 422.68 292.795 420.486Q292.653 420.055 292.555 419.612Q292.456 419.169 292.402 418.719Q292.347 418.268 292.337 417.814Q292.327 417.361 292.361 416.908Q292.395 416.456 292.474 416.009Q292.552 415.562 292.674 415.125Q292.796 414.688 292.961 414.265Q293.125 413.842 293.33 413.437C294.377 411.404 296.221 409.832 298.459 409.289C301.874 408.461 305.206 409.959 307.991 411.803C310.334 415.27 311.479 417.54 310.838 421.748Z"/>
	<path id="tongue-red" fill="#E89A8A" transform="scale(0.195312 0.195312)" d="M227.604 718.739C243.03 712.982 258.776 705.102 275.189 712.623Q276.49 713.22 277.73 713.937Q278.969 714.654 280.134 715.486Q281.3 716.317 282.382 717.255Q283.464 718.193 284.452 719.229C307.26 713.379 332.393 709.236 353.811 721.835C362.517 726.957 367.638 733.79 372.76 742.309C346.334 761.123 318.75 775.23 287.836 785.181C287.237 787.285 285.735 790.732 286.461 792.848C284.16 795.372 282.51 801.423 280.984 804.643C277.948 811.049 274.159 818.253 269.681 823.808C267.551 826.45 260.03 832.982 259.463 835.664C255.948 836.685 251.945 839.948 248.694 841.794C233.971 850.157 217.019 852.488 200.629 847.813Q199.354 847.448 198.098 847.022Q196.842 846.595 195.608 846.109Q194.374 845.622 193.166 845.076Q191.957 844.529 190.776 843.925Q189.596 843.321 188.446 842.66Q187.296 841.999 186.179 841.283Q185.063 840.567 183.982 839.797Q182.902 839.028 181.86 838.207Q180.819 837.386 179.818 836.515Q178.817 835.645 177.86 834.726Q176.903 833.808 175.992 832.845Q175.08 831.881 174.217 830.874Q173.353 829.867 172.54 828.82Q171.726 827.772 170.965 826.687Q170.203 825.601 169.495 824.479Q168.787 823.358 168.134 822.203C161.022 809.367 160.236 794.106 164.347 780.154C170.599 758.938 186.81 742.245 205.256 730.864C212.449 726.426 220.16 722.745 227.604 718.739Z"/>
	<path id="tongue-outline" fill="#B65F5E" transform="scale(0.195312 0.195312)" d="M266.289 724.693C267.282 724.639 268.132 724.634 269.113 724.804L268.52 724.821C266.912 726.295 260.201 727.928 257.795 729.017C252.157 731.569 247.264 735.006 242.809 739.282C226.671 754.767 218.819 776.183 218.453 798.323L218.279 800.863L218.579 800.456C217.788 799.569 217.999 800.068 217.876 798.874C215.939 780.031 221.372 757.318 233.444 742.494C242.029 731.953 252.778 726.093 266.289 724.693Z"/>
	<path id="orange-fur" fill="#F5931D" transform="scale(0.195312 0.195312)" d="M891.583 685.2C891.667 685.517 891.757 685.833 891.834 686.152C892.793 690.121 892.456 694.418 893.433 698.563C898.881 721.654 904.148 745.068 911.119 767.738C925.812 815.52 949.022 861.408 982.722 898.599C991.08 907.823 1005.25 923.079 1015.18 929.833C1015.89 930.316 1016.62 930.651 1017.46 930.839C1019.87 933.421 1021.94 936.122 1024 938.99L1024 1024L540.037 1024C584.47 994.072 625.383 957.904 650.685 909.883C654.567 902.516 657.536 894.769 660.828 887.133C661.464 913.784 658.219 932.381 650.294 957.789C695.339 937.645 727.217 897.882 748.131 854.279C751.766 846.702 754.785 838.848 757.946 831.066Q759.229 835.085 760.32 839.161Q761.411 843.236 762.307 847.359Q763.203 851.481 763.903 855.642Q764.602 859.802 765.103 863.991Q765.604 868.181 765.905 872.389Q766.207 876.597 766.308 880.815Q766.41 885.032 766.31 889.25Q766.211 893.468 765.912 897.676C802.63 863.338 818.715 824.268 824.206 775.13C840.099 795.555 847.251 821.344 854.436 845.761C878.546 800.928 891.254 735.818 891.583 685.2Z"/>
	<path id="face-orange-2" fill="#F5931D" transform="scale(0.195312 0.195312)" d="M547.49 260.563C553.944 261.607 586.004 267.946 590.035 267.467C605.774 274.177 626.738 277.038 643.605 275.965C649.67 275.58 655.617 274.291 661.651 273.833C650.346 283.6 636.475 289.377 621.865 291.667C622.285 303.039 626.398 311.805 634.77 319.52C644.746 328.713 658.717 335.187 672.444 334.591C675.163 334.473 677.768 334.056 680.392 333.331C689.432 338.573 697.985 344.332 705.959 351.097C740.458 380.365 774.082 430.595 791.257 472.284C794.947 481.24 798.606 490.375 801.423 499.651C803.294 505.813 804.495 513.849 807.099 519.566C806.698 522.126 809.264 530.012 809.861 533.1Q812.787 548.339 814.024 563.806C831.162 553.848 853.653 530.446 865.821 514.571C868.676 521.552 870.206 529.583 872.073 536.906C879.349 565.446 884.152 594.111 887.332 623.372C888.062 630.088 889.205 656.325 890.762 660.116C886.646 663.138 882.828 666.543 878.714 669.574Q874.821 672.437 870.748 675.038Q866.675 677.638 862.44 679.965Q858.204 682.291 853.825 684.333Q849.445 686.375 844.94 688.124C790.926 709.353 714.667 705.549 670.011 665.533C659.89 656.464 654.073 646.331 645.828 635.928C626.753 611.86 600.175 592.86 571.531 581.887Q566.218 579.848 560.788 578.142Q555.359 576.436 549.834 575.069Q544.309 573.703 538.71 572.683Q533.111 571.662 527.46 570.99C492.948 566.828 457.078 569.883 424.449 555.571C399.27 544.527 379.079 525.96 369.005 500.006C357.705 470.896 364.163 440.518 376.386 412.918C401.537 356.125 448.837 304.075 504.802 276.563C513.505 272.284 522.764 268.046 531.984 265.037C536.746 263.483 542.044 262.77 546.654 260.909L547.49 260.563Z"/>
	<defs>
		<linearGradient id="gradient_2" gradientUnits="userSpaceOnUse" x1="497.34225" y1="401.60989" x2="515.25562" y2="379.70734">
			<stop offset="0" stop-color="#000204"/>
			<stop offset="1" stop-color="#1D130D"/>
		</linearGradient>
	</defs>
	<path id="eyebrow-2" fill="url(#gradient_2)" transform="scale(0.195312 0.195312)" d="M476.933 363.678Q478.962 363.515 480.998 363.481C493.29 363.396 504.655 368.663 513.316 377.237C529.284 393.042 536.299 419.424 536.475 441.338C535.192 436.802 533.849 432.328 532.294 427.875C526.995 414.082 520.241 401.381 509.6 390.935C495.013 376.615 477.717 370.295 457.478 370.501C463.928 367.048 469.679 364.746 476.933 363.678Z"/>
	<path id="eye-2" fill="#101416" transform="scale(0.195312 0.195312)" d="M489.788 446.979C492.559 453.398 493.673 460.626 492.536 467.551C491.11 476.243 485.921 484.225 478.79 489.341Q478.086 489.854 477.358 490.332Q476.63 490.809 475.879 491.25Q475.128 491.691 474.356 492.095Q473.584 492.498 472.793 492.862Q472.002 493.227 471.194 493.552Q470.386 493.876 469.563 494.161Q468.74 494.445 467.904 494.688Q467.068 494.932 466.22 495.133Q465.373 495.335 464.517 495.494Q463.661 495.653 462.798 495.77Q461.935 495.886 461.067 495.96Q460.199 496.034 459.329 496.065Q458.459 496.095 457.588 496.083Q456.717 496.07 455.848 496.014Q454.979 495.959 454.114 495.86Q453.248 495.761 452.389 495.62C442.816 493.965 434.683 488.513 429.212 480.526C423.692 472.467 421.027 462.598 422.877 452.901Q423.038 452.037 423.241 451.182Q423.445 450.327 423.69 449.484Q423.936 448.64 424.223 447.809Q424.51 446.979 424.838 446.164Q425.166 445.348 425.534 444.55Q425.902 443.752 426.309 442.974Q426.716 442.195 427.161 441.437Q427.606 440.68 428.088 439.945Q428.571 439.211 429.089 438.501Q429.607 437.791 430.16 437.108Q430.712 436.425 431.298 435.77Q431.884 435.115 432.502 434.49Q433.119 433.865 433.767 433.271Q434.415 432.678 435.092 432.117Q435.768 431.556 436.472 431.03Q437.175 430.503 437.904 430.012C445.401 425.032 454.751 423.54 463.513 425.33C468.795 426.409 479.03 430.434 481.727 435.213C481.815 435.368 481.865 435.541 481.934 435.706C486.147 437.917 487.939 441.056 489.369 445.502C489.526 445.989 489.663 446.482 489.788 446.979Z"/>
	<path id="eye-white-2" fill="#FEFEFE" transform="scale(0.195312 0.195312)" d="M489.788 446.979Q489.705 447.753 489.598 448.525C489.085 452.155 487.447 455.464 484.371 457.594C481.296 459.724 477.034 460.655 473.371 459.843C470.049 459.107 467.265 456.967 465.498 454.082Q465.162 453.524 464.882 452.935Q464.602 452.347 464.381 451.734Q464.16 451.122 464 450.49Q463.839 449.859 463.741 449.215Q463.643 448.57 463.609 447.92Q463.574 447.269 463.603 446.619Q463.632 445.968 463.724 445.323Q463.816 444.678 463.971 444.045C464.721 441.001 466.565 438.3 469.278 436.688C473.174 434.374 477.709 434.629 481.934 435.706C486.147 437.917 487.939 441.056 489.369 445.502C489.526 445.989 489.663 446.482 489.788 446.979Z"/>
</svg>
